<?xml version="1.0" encoding="UTF-8"?>
<svg xmlns="http://www.w3.org/2000/svg" xmlns:xlink="http://www.w3.org/1999/xlink" width="262.452pt" height="92.373pt" viewBox="0 0 262.452 92.373" version="1.2">
<g id="surface1">
<path style="fill-rule:nonzero;fill:rgb(0%,0%,0%);fill-opacity:1;stroke-width:0.3985;stroke-linecap:butt;stroke-linejoin:miter;stroke:rgb(0%,0%,0%);stroke-opacity:1;stroke-miterlimit:10;" d="M 1.702628 -0.000385632 C 1.702628 0.939545 0.939672 1.702501 -0.000258882 1.702501 C -0.94019 1.702501 -1.699213 0.939545 -1.699213 -0.000385632 C -1.699213 -0.940316 -0.94019 -1.69934 -0.000258882 -1.69934 C 0.939672 -1.69934 1.702628 -0.940316 1.702628 -0.000385632 Z M 1.702628 -0.000385632 " transform="matrix(0.993258,0,0,-0.993258,18.332288,45.874617)"/>
<path style="fill-rule:nonzero;fill:rgb(100%,0%,0%);fill-opacity:1;stroke-width:0.3985;stroke-linecap:butt;stroke-linejoin:miter;stroke:rgb(100%,0%,0%);stroke-opacity:1;stroke-miterlimit:10;" d="M 58.393428 -0.000385632 C 58.393428 0.939545 57.634404 1.702501 56.694473 1.702501 C 55.754543 1.702501 54.991586 0.939545 54.991586 -0.000385632 C 54.991586 -0.940316 55.754543 -1.69934 56.694473 -1.69934 C 57.634404 -1.69934 58.393428 -0.940316 58.393428 -0.000385632 Z M 58.393428 -0.000385632 " transform="matrix(0.993258,0,0,-0.993258,18.332288,45.874617)"/>
<path style="fill-rule:nonzero;fill:rgb(100%,0%,0%);fill-opacity:1;stroke-width:0.3985;stroke-linecap:butt;stroke-linejoin:miter;stroke:rgb(100%,0%,0%);stroke-opacity:1;stroke-miterlimit:10;" d="M 115.08816 28.34698 C 115.08816 29.286911 114.325204 30.045935 113.389206 30.045935 C 112.449275 30.045935 111.686319 29.286911 111.686319 28.34698 C 111.686319 27.40705 112.449275 26.648026 113.389206 26.648026 C 114.325204 26.648026 115.08816 27.40705 115.08816 28.34698 Z M 115.08816 28.34698 " transform="matrix(0.993258,0,0,-0.993258,18.332288,45.874617)"/>
<path style="fill-rule:nonzero;fill:rgb(100%,0%,0%);fill-opacity:1;stroke-width:0.3985;stroke-linecap:butt;stroke-linejoin:miter;stroke:rgb(100%,0%,0%);stroke-opacity:1;stroke-miterlimit:10;" d="M 115.08816 -28.347752 C 115.08816 -27.407821 114.325204 -26.644865 113.389206 -26.644865 C 112.449275 -26.644865 111.686319 -27.407821 111.686319 -28.347752 C 111.686319 -29.287682 112.449275 -30.046706 113.389206 -30.046706 C 114.325204 -30.046706 115.08816 -29.287682 115.08816 -28.347752 Z M 115.08816 -28.347752 " transform="matrix(0.993258,0,0,-0.993258,18.332288,45.874617)"/>
<path style="fill-rule:nonzero;fill:rgb(100%,0%,0%);fill-opacity:1;stroke-width:0.3985;stroke-linecap:butt;stroke-linejoin:miter;stroke:rgb(100%,0%,0%);stroke-opacity:1;stroke-miterlimit:10;" d="M 171.782892 -0.000385632 C 171.782892 0.939545 171.019936 1.702501 170.080005 1.702501 C 169.140074 1.702501 168.381051 0.939545 168.381051 -0.000385632 C 168.381051 -0.940316 169.140074 -1.69934 170.080005 -1.69934 C 171.019936 -1.69934 171.782892 -0.940316 171.782892 -0.000385632 Z M 171.782892 -0.000385632 " transform="matrix(0.993258,0,0,-0.993258,18.332288,45.874617)"/>
<path style="fill-rule:nonzero;fill:rgb(0%,0%,0%);fill-opacity:1;stroke-width:0.3985;stroke-linecap:butt;stroke-linejoin:miter;stroke:rgb(0%,0%,0%);stroke-opacity:1;stroke-miterlimit:10;" d="M 228.473692 -0.000385632 C 228.473692 0.939545 227.714668 1.702501 226.774737 1.702501 C 225.834807 1.702501 225.07185 0.939545 225.07185 -0.000385632 C 225.07185 -0.940316 225.834807 -1.69934 226.774737 -1.69934 C 227.714668 -1.69934 228.473692 -0.940316 228.473692 -0.000385632 Z M 228.473692 -0.000385632 " transform="matrix(0.993258,0,0,-0.993258,18.332288,45.874617)"/>
<path style="fill:none;stroke-width:0.79701;stroke-linecap:butt;stroke-linejoin:miter;stroke:rgb(0%,0%,0%);stroke-opacity:1;stroke-miterlimit:10;" d="M 1.899266 -0.000385632 L 53.359489 -0.000385632 " transform="matrix(0.993258,0,0,-0.993258,18.332288,45.874617)"/>
<path style="fill-rule:nonzero;fill:rgb(0%,0%,0%);fill-opacity:1;stroke-width:0.79701;stroke-linecap:butt;stroke-linejoin:round;stroke:rgb(0%,0%,0%);stroke-opacity:1;stroke-miterlimit:10;" d="M 1.034796 -0.000385632 C -0.259083 0.259177 -1.552963 0.778302 -3.106405 1.682838 C -1.552963 0.518739 -1.552963 -0.519511 -3.106405 -1.683609 C -1.552963 -0.77514 -0.259083 -0.259948 1.034796 -0.000385632 Z M 1.034796 -0.000385632 " transform="matrix(0.993258,0,0,-0.993258,71.331555,45.874617)"/>
<path style="fill:none;stroke-width:0.79701;stroke-linecap:butt;stroke-linejoin:miter;stroke:rgb(100%,0%,0%);stroke-opacity:1;stroke-miterlimit:10;" d="M 58.393428 0.849091 L 110.404237 26.856463 " transform="matrix(0.993258,0,0,-0.993258,18.332288,45.874617)"/>
<path style="fill-rule:nonzero;fill:rgb(100%,0%,0%);fill-opacity:1;stroke-width:0.79701;stroke-linecap:butt;stroke-linejoin:round;stroke:rgb(100%,0%,0%);stroke-opacity:1;stroke-miterlimit:10;" d="M 1.037537 0.00101029 C -0.258794 0.257802 -1.555127 0.778432 -3.108266 1.682506 C -1.553365 0.518111 -1.553356 -0.519655 -3.108236 -1.685837 C -1.555113 -0.778217 -0.258789 -0.261081 1.037537 0.00101029 Z M 1.037537 0.00101029 " transform="matrix(0.88833,-0.444155,-0.444155,-0.88833,127.992836,19.200006)"/>
<path style="fill:none;stroke-width:0.79701;stroke-linecap:butt;stroke-linejoin:miter;stroke:rgb(100%,0%,0%);stroke-opacity:1;stroke-miterlimit:10;" d="M 111.686319 -27.498275 L 59.675509 -1.490903 " transform="matrix(0.993258,0,0,-0.993258,18.332288,45.874617)"/>
<path style="fill-rule:nonzero;fill:rgb(100%,0%,0%);fill-opacity:1;stroke-width:0.79701;stroke-linecap:butt;stroke-linejoin:round;stroke:rgb(100%,0%,0%);stroke-opacity:1;stroke-miterlimit:10;" d="M 1.038258 -0.00000574505 C -0.259827 0.256809 -1.552633 0.775704 -3.109274 1.681564 C -1.556153 0.518901 -1.552644 -0.517107 -3.107545 -1.681502 C -1.554406 -0.777428 -0.258073 -0.256797 1.038258 -0.00000574505 Z M 1.038258 -0.00000574505 " transform="matrix(-0.88833,-0.444155,-0.444155,0.88833,77.605907,47.355684)"/>
<path style="fill:none;stroke-width:0.79701;stroke-linecap:butt;stroke-linejoin:miter;stroke:rgb(100%,0%,0%);stroke-opacity:1;stroke-miterlimit:10;" d="M 115.08816 27.497503 L 167.09897 1.490132 " transform="matrix(0.993258,0,0,-0.993258,18.332288,45.874617)"/>
<path style="fill-rule:nonzero;fill:rgb(100%,0%,0%);fill-opacity:1;stroke-width:0.79701;stroke-linecap:butt;stroke-linejoin:round;stroke:rgb(100%,0%,0%);stroke-opacity:1;stroke-miterlimit:10;" d="M 1.038619 -0.000687423 C -0.261225 0.259645 -1.55403 0.77854 -3.110672 1.684401 C -1.555792 0.518219 -1.552283 -0.517788 -3.107184 -1.682183 C -1.554044 -0.778109 -0.257711 -0.257479 1.038619 -0.000687423 Z M 1.038619 -0.000687423 " transform="matrix(0.88833,0.444155,0.444155,-0.88833,184.304231,44.39355)"/>
<path style="fill:none;stroke-width:0.79701;stroke-linecap:butt;stroke-linejoin:miter;stroke:rgb(100%,0%,0%);stroke-opacity:1;stroke-miterlimit:10;" d="M 168.381051 -0.849863 L 116.370241 -26.857234 " transform="matrix(0.993258,0,0,-0.993258,18.332288,45.874617)"/>
<path style="fill-rule:nonzero;fill:rgb(100%,0%,0%);fill-opacity:1;stroke-width:0.79701;stroke-linecap:butt;stroke-linejoin:round;stroke:rgb(100%,0%,0%);stroke-opacity:1;stroke-miterlimit:10;" d="M 1.036107 -0.00180946 C -0.258465 0.2585 -1.554798 0.77913 -3.107938 1.683204 C -1.553037 0.518809 -1.553027 -0.518957 -3.107907 -1.685138 C -1.554784 -0.777519 -0.25846 -0.260383 1.036107 -0.00180946 Z M 1.036107 -0.00180946 " transform="matrix(-0.88833,0.444155,0.444155,0.88833,133.917302,72.549228)"/>
<path style="fill:none;stroke-width:0.79701;stroke-linecap:butt;stroke-linejoin:miter;stroke:rgb(0%,0%,0%);stroke-opacity:1;stroke-miterlimit:10;" d="M 171.97953 -0.000385632 L 223.439753 -0.000385632 " transform="matrix(0.993258,0,0,-0.993258,18.332288,45.874617)"/>
<path style="fill-rule:nonzero;fill:rgb(0%,0%,0%);fill-opacity:1;stroke-width:0.79701;stroke-linecap:butt;stroke-linejoin:round;stroke:rgb(0%,0%,0%);stroke-opacity:1;stroke-miterlimit:10;" d="M 1.0342 -0.000385632 C -0.259679 0.259177 -1.553559 0.778302 -3.107001 1.682838 C -1.553559 0.518739 -1.553559 -0.519511 -3.107001 -1.683609 C -1.553559 -0.77514 -0.259679 -0.259948 1.0342 -0.000385632 Z M 1.0342 -0.000385632 " transform="matrix(0.993258,0,0,-0.993258,240.265741,45.874617)"/>
</g>
</svg>
