<?xml version="1.0" encoding="UTF-8"?>
<svg xmlns="http://www.w3.org/2000/svg" xmlns:xlink="http://www.w3.org/1999/xlink" width="262.452pt" height="92.373pt" viewBox="0 0 262.452 92.373" version="1.2">
<g id="surface1">
<path style="fill-rule:nonzero;fill:rgb(0%,0%,0%);fill-opacity:1;stroke-width:0.3985;stroke-linecap:butt;stroke-linejoin:miter;stroke:rgb(0%,0%,0%);stroke-opacity:1;stroke-miterlimit:10;" d="M 1.702628 -0.000385632 C 1.702628 0.939545 0.939672 1.702501 -0.000258882 1.702501 C -0.94019 1.702501 -1.699213 0.939545 -1.699213 -0.000385632 C -1.699213 -0.940316 -0.94019 -1.69934 -0.000258882 -1.69934 C 0.939672 -1.69934 1.702628 -0.940316 1.702628 -0.000385632 Z M 1.702628 -0.000385632 " transform="matrix(0.993258,0,0,-0.993258,18.332288,45.874617)"/>
<path style="fill-rule:nonzero;fill:rgb(0%,0%,0%);fill-opacity:1;stroke-width:0.3985;stroke-linecap:butt;stroke-linejoin:miter;stroke:rgb(0%,0%,0%);stroke-opacity:1;stroke-miterlimit:10;" d="M 58.393428 -0.000385632 C 58.393428 0.939545 57.634404 1.702501 56.694473 1.702501 C 55.754543 1.702501 54.991586 0.939545 54.991586 -0.000385632 C 54.991586 -0.940316 55.754543 -1.69934 56.694473 -1.69934 C 57.634404 -1.69934 58.393428 -0.940316 58.393428 -0.000385632 Z M 58.393428 -0.000385632 " transform="matrix(0.993258,0,0,-0.993258,18.332288,45.874617)"/>
<path style="fill-rule:nonzero;fill:rgb(0%,0%,0%);fill-opacity:1;stroke-width:0.3985;stroke-linecap:butt;stroke-linejoin:miter;stroke:rgb(0%,0%,0%);stroke-opacity:1;stroke-miterlimit:10;" d="M 115.08816 28.34698 C 115.08816 29.286911 114.325204 30.045935 113.389206 30.045935 C 112.449275 30.045935 111.686319 29.286911 111.686319 28.34698 C 111.686319 27.40705 112.449275 26.648026 113.389206 26.648026 C 114.325204 26.648026 115.08816 27.40705 115.08816 28.34698 Z M 115.08816 28.34698 " transform="matrix(0.993258,0,0,-0.993258,18.332288,45.874617)"/>
<path style="fill-rule:nonzero;fill:rgb(0%,0%,0%);fill-opacity:1;stroke-width:0.3985;stroke-linecap:butt;stroke-linejoin:miter;stroke:rgb(0%,0%,0%);stroke-opacity:1;stroke-miterlimit:10;" d="M 115.08816 -28.347752 C 115.08816 -27.407821 114.325204 -26.644865 113.389206 -26.644865 C 112.449275 -26.644865 111.686319 -27.407821 111.686319 -28.347752 C 111.686319 -29.287682 112.449275 -30.046706 113.389206 -30.046706 C 114.325204 -30.046706 115.08816 -29.287682 115.08816 -28.347752 Z M 115.08816 -28.347752 " transform="matrix(0.993258,0,0,-0.993258,18.332288,45.874617)"/>
<path style="fill-rule:nonzero;fill:rgb(0%,0%,0%);fill-opacity:1;stroke-width:0.3985;stroke-linecap:butt;stroke-linejoin:miter;stroke:rgb(0%,0%,0%);stroke-opacity:1;stroke-miterlimit:10;" d="M 171.782892 -0.000385632 C 171.782892 0.939545 171.019936 1.702501 170.080005 1.702501 C 169.140074 1.702501 168.381051 0.939545 168.381051 -0.000385632 C 168.381051 -0.940316 169.140074 -1.69934 170.080005 -1.69934 C 171.019936 -1.69934 171.782892 -0.940316 171.782892 -0.000385632 Z M 171.782892 -0.000385632 " transform="matrix(0.993258,0,0,-0.993258,18.332288,45.874617)"/>
<path style="fill-rule:nonzero;fill:rgb(0%,0%,0%);fill-opacity:1;stroke-width:0.3985;stroke-linecap:butt;stroke-linejoin:miter;stroke:rgb(0%,0%,0%);stroke-opacity:1;stroke-miterlimit:10;" d="M 228.473692 -0.000385632 C 228.473692 0.939545 227.714668 1.702501 226.774737 1.702501 C 225.834807 1.702501 225.07185 0.939545 225.07185 -0.000385632 C 225.07185 -0.940316 225.834807 -1.69934 226.774737 -1.69934 C 227.714668 -1.69934 228.473692 -0.940316 228.473692 -0.000385632 Z M 228.473692 -0.000385632 " transform="matrix(0.993258,0,0,-0.993258,18.332288,45.874617)"/>
<path style="fill:none;stroke-width:0.79701;stroke-linecap:butt;stroke-linejoin:miter;stroke:rgb(0%,0%,0%);stroke-opacity:1;stroke-miterlimit:10;" d="M 1.899266 -0.000385632 L 53.359489 -0.000385632 " transform="matrix(0.993258,0,0,-0.993258,18.332288,45.874617)"/>
<path style="fill-rule:nonzero;fill:rgb(0%,0%,0%);fill-opacity:1;stroke-width:0.79701;stroke-linecap:butt;stroke-linejoin:round;stroke:rgb(0%,0%,0%);stroke-opacity:1;stroke-miterlimit:10;" d="M 1.034796 -0.000385632 C -0.259083 0.259177 -1.552963 0.778302 -3.106405 1.682838 C -1.552963 0.518739 -1.552963 -0.519511 -3.106405 -1.683609 C -1.552963 -0.77514 -0.259083 -0.259948 1.034796 -0.000385632 Z M 1.034796 -0.000385632 " transform="matrix(0.993258,0,0,-0.993258,71.331555,45.874617)"/>
<path style="fill:none;stroke-width:0.79701;stroke-linecap:butt;stroke-linejoin:miter;stroke:rgb(0%,0%,0%);stroke-opacity:1;stroke-miterlimit:10;" d="M 58.393428 0.849091 L 110.404237 26.856463 " transform="matrix(0.993258,0,0,-0.993258,18.332288,45.874617)"/>
<path style="fill-rule:nonzero;fill:rgb(0%,0%,0%);fill-opacity:1;stroke-width:0.79701;stroke-linecap:butt;stroke-linejoin:round;stroke:rgb(0%,0%,0%);stroke-opacity:1;stroke-miterlimit:10;" d="M 1.037537 0.00101029 C -0.258794 0.257802 -1.555127 0.778432 -3.108266 1.682506 C -1.553365 0.518111 -1.553356 -0.519655 -3.108236 -1.685837 C -1.555113 -0.778217 -0.258789 -0.261081 1.037537 0.00101029 Z M 1.037537 0.00101029 " transform="matrix(0.88833,-0.444155,-0.444155,-0.88833,127.992836,19.200006)"/>
<path style="fill:none;stroke-width:0.79701;stroke-linecap:butt;stroke-linejoin:miter;stroke:rgb(0%,0%,0%);stroke-opacity:1;stroke-miterlimit:10;" d="M 115.08816 -27.498275 L 167.09897 -1.490903 " transform="matrix(0.993258,0,0,-0.993258,18.332288,45.874617)"/>
<path style="fill-rule:nonzero;fill:rgb(0%,0%,0%);fill-opacity:1;stroke-width:0.79701;stroke-linecap:butt;stroke-linejoin:round;stroke:rgb(0%,0%,0%);stroke-opacity:1;stroke-miterlimit:10;" d="M 1.038274 -0.00000247453 C -0.258056 0.256789 -1.554389 0.77742 -3.107529 1.681493 C -1.552628 0.517099 -1.556137 -0.518909 -3.109258 -1.681573 C -1.552616 -0.775712 -0.259811 -0.256817 1.038274 -0.00000247453 Z M 1.038274 -0.00000247453 " transform="matrix(0.88833,-0.444155,-0.444155,-0.88833,184.304231,47.355684)"/>
<path style="fill:none;stroke-width:0.79701;stroke-linecap:butt;stroke-linejoin:miter;stroke:rgb(0%,0%,0%);stroke-opacity:1;stroke-miterlimit:10;" d="M 171.97953 -0.000385632 L 223.439753 -0.000385632 " transform="matrix(0.993258,0,0,-0.993258,18.332288,45.874617)"/>
<path style="fill-rule:nonzero;fill:rgb(0%,0%,0%);fill-opacity:1;stroke-width:0.79701;stroke-linecap:butt;stroke-linejoin:round;stroke:rgb(0%,0%,0%);stroke-opacity:1;stroke-miterlimit:10;" d="M 1.0342 -0.000385632 C -0.259679 0.259177 -1.553559 0.778302 -3.107001 1.682838 C -1.553559 0.518739 -1.553559 -0.519511 -3.107001 -1.683609 C -1.553559 -0.77514 -0.259679 -0.259948 1.0342 -0.000385632 Z M 1.0342 -0.000385632 " transform="matrix(0.993258,0,0,-0.993258,240.265741,45.874617)"/>
</g>
</svg>
