<?xml version="1.0" encoding="UTF-8"?>
<svg xmlns="http://www.w3.org/2000/svg" xmlns:xlink="http://www.w3.org/1999/xlink" width="205.759pt" height="64.027pt" viewBox="0 0 205.759 64.027" version="1.2">
<g id="surface1">
<path style="fill-rule:nonzero;fill:rgb(0%,0%,0%);fill-opacity:1;stroke-width:0.3985;stroke-linecap:butt;stroke-linejoin:miter;stroke:rgb(0%,0%,0%);stroke-opacity:1;stroke-miterlimit:10;" d="M 1.699124 -0.00048487 C 1.699124 0.939365 0.937726 1.700763 0.00184163 1.700763 C -0.938008 1.700763 -1.699406 0.939365 -1.699406 -0.00048487 C -1.699406 -0.940335 -0.938008 -1.701732 0.00184163 -1.701732 C 0.937726 -1.701732 1.699124 -0.940335 1.699124 -0.00048487 Z M 1.699124 -0.00048487 " transform="matrix(0.985031,0,0,-0.985031,18.99428,45.495616)"/>
<path style="fill-rule:nonzero;fill:rgb(0%,0%,0%);fill-opacity:1;stroke-width:0.3985;stroke-linecap:butt;stroke-linejoin:miter;stroke:rgb(0%,0%,0%);stroke-opacity:1;stroke-miterlimit:10;" d="M 58.395481 28.345711 C 58.395481 29.285561 57.634083 30.046958 56.694233 30.046958 C 55.754383 30.046958 54.992985 29.285561 54.992985 28.345711 C 54.992985 27.405861 55.754383 26.644463 56.694233 26.644463 C 57.634083 26.644463 58.395481 27.405861 58.395481 28.345711 Z M 58.395481 28.345711 " transform="matrix(0.985031,0,0,-0.985031,18.99428,45.495616)"/>
<path style="fill-rule:nonzero;fill:rgb(0%,0%,0%);fill-opacity:1;stroke-width:0.3985;stroke-linecap:butt;stroke-linejoin:miter;stroke:rgb(0%,0%,0%);stroke-opacity:1;stroke-miterlimit:10;" d="M 115.087872 -0.00048487 C 115.087872 0.939365 114.326475 1.700763 113.386625 1.700763 C 112.446775 1.700763 111.685377 0.939365 111.685377 -0.00048487 C 111.685377 -0.940335 112.446775 -1.701732 113.386625 -1.701732 C 114.326475 -1.701732 115.087872 -0.940335 115.087872 -0.00048487 Z M 115.087872 -0.00048487 " transform="matrix(0.985031,0,0,-0.985031,18.99428,45.495616)"/>
<path style="fill-rule:nonzero;fill:rgb(0%,0%,0%);fill-opacity:1;stroke-width:0.3985;stroke-linecap:butt;stroke-linejoin:miter;stroke:rgb(0%,0%,0%);stroke-opacity:1;stroke-miterlimit:10;" d="M 171.780264 28.345711 C 171.780264 29.285561 171.018866 30.046958 170.079016 30.046958 C 169.143132 30.046958 168.381734 29.285561 168.381734 28.345711 C 168.381734 27.405861 169.143132 26.644463 170.079016 26.644463 C 171.018866 26.644463 171.780264 27.405861 171.780264 28.345711 Z M 171.780264 28.345711 " transform="matrix(0.985031,0,0,-0.985031,18.99428,45.495616)"/>
<path style="fill:none;stroke-width:0.79701;stroke-linecap:butt;stroke-linejoin:miter;stroke:rgb(0%,0%,0%);stroke-opacity:1;stroke-miterlimit:10;" d="M 1.699124 0.848156 L 53.712093 26.854641 " transform="matrix(0.985031,0,0,-0.985031,18.99428,45.495616)"/>
<path style="fill-rule:nonzero;fill:rgb(0%,0%,0%);fill-opacity:1;stroke-width:0.79701;stroke-linecap:butt;stroke-linejoin:round;stroke:rgb(0%,0%,0%);stroke-opacity:1;stroke-miterlimit:10;" d="M 1.034294 0.000494181 C -0.260448 0.257657 -1.55342 0.775542 -3.10889 1.681846 C -1.553417 0.518367 -1.553408 -0.519199 -3.107086 -1.684479 C -1.553406 -0.776373 -0.256897 -0.258465 1.034294 0.000494181 Z M 1.034294 0.000494181 " transform="matrix(0.880972,-0.440476,-0.440476,-0.880972,71.901533,19.041955)"/>
<path style="fill:none;stroke-width:0.79701;stroke-linecap:butt;stroke-linejoin:miter;stroke:rgb(0%,0%,0%);stroke-opacity:1;stroke-miterlimit:10;" d="M 58.391515 27.49707 L 110.404484 1.490585 " transform="matrix(0.985031,0,0,-0.985031,18.99428,45.495616)"/>
<path style="fill-rule:nonzero;fill:rgb(0%,0%,0%);fill-opacity:1;stroke-width:0.79701;stroke-linecap:butt;stroke-linejoin:round;stroke:rgb(0%,0%,0%);stroke-opacity:1;stroke-miterlimit:10;" d="M 1.037442 -0.000669031 C -0.25907 0.260064 -1.555579 0.777972 -3.107485 1.68253 C -1.553808 0.51725 -1.55559 -0.516768 -3.109289 -1.683794 C -1.553819 -0.77749 -0.260848 -0.259605 1.037442 -0.000669031 Z M 1.037442 -0.000669031 " transform="matrix(0.880972,0.440476,0.440476,-0.880972,127.746493,44.026817)"/>
<path style="fill:none;stroke-width:0.79701;stroke-linecap:butt;stroke-linejoin:miter;stroke:rgb(0%,0%,0%);stroke-opacity:1;stroke-miterlimit:10;" d="M 115.087872 0.848156 L 167.096876 26.854641 " transform="matrix(0.985031,0,0,-0.985031,18.99428,45.495616)"/>
<path style="fill-rule:nonzero;fill:rgb(0%,0%,0%);fill-opacity:1;stroke-width:0.79701;stroke-linecap:butt;stroke-linejoin:round;stroke:rgb(0%,0%,0%);stroke-opacity:1;stroke-miterlimit:10;" d="M 1.035644 -0.000180525 C -0.259099 0.256982 -1.555617 0.77664 -3.10754 1.681171 C -1.555615 0.519466 -1.555606 -0.5181 -3.109284 -1.68338 C -1.552056 -0.777048 -0.259094 -0.257367 1.035644 -0.000180525 Z M 1.035644 -0.000180525 " transform="matrix(0.880972,-0.440476,-0.440476,-0.880972,183.591454,19.041955)"/>
</g>
</svg>
