<?xml version="1.0" encoding="UTF-8"?>
<svg xmlns="http://www.w3.org/2000/svg" xmlns:xlink="http://www.w3.org/1999/xlink" width="205.759pt" height="64.027pt" viewBox="0 0 205.759 64.027" version="1.2">
<g id="surface1">
<path style="fill-rule:nonzero;fill:rgb(0%,0%,0%);fill-opacity:1;stroke-width:0.3985;stroke-linecap:butt;stroke-linejoin:miter;stroke:rgb(0%,0%,0%);stroke-opacity:1;stroke-miterlimit:10;" d="M 1.699124 -0.00048487 C 1.699124 0.939365 0.937726 1.700763 0.00184163 1.700763 C -0.938008 1.700763 -1.699406 0.939365 -1.699406 -0.00048487 C -1.699406 -0.940335 -0.938008 -1.701732 0.00184163 -1.701732 C 0.937726 -1.701732 1.699124 -0.940335 1.699124 -0.00048487 Z M 1.699124 -0.00048487 " transform="matrix(0.985031,0,0,-0.985031,18.99428,45.495616)"/>
<path style="fill-rule:nonzero;fill:rgb(0%,0%,0%);fill-opacity:1;stroke-width:0.3985;stroke-linecap:butt;stroke-linejoin:miter;stroke:rgb(0%,0%,0%);stroke-opacity:1;stroke-miterlimit:10;" d="M 58.395481 28.345711 C 58.395481 29.285561 57.634083 30.046958 56.694233 30.046958 C 55.754383 30.046958 54.992985 29.285561 54.992985 28.345711 C 54.992985 27.405861 55.754383 26.644463 56.694233 26.644463 C 57.634083 26.644463 58.395481 27.405861 58.395481 28.345711 Z M 58.395481 28.345711 " transform="matrix(0.985031,0,0,-0.985031,18.99428,45.495616)"/>
<path style="fill-rule:nonzero;fill:rgb(0%,0%,0%);fill-opacity:1;stroke-width:0.3985;stroke-linecap:butt;stroke-linejoin:miter;stroke:rgb(0%,0%,0%);stroke-opacity:1;stroke-miterlimit:10;" d="M 115.087872 -0.00048487 C 115.087872 0.939365 114.326475 1.700763 113.386625 1.700763 C 112.446775 1.700763 111.685377 0.939365 111.685377 -0.00048487 C 111.685377 -0.940335 112.446775 -1.701732 113.386625 -1.701732 C 114.326475 -1.701732 115.087872 -0.940335 115.087872 -0.00048487 Z M 115.087872 -0.00048487 " transform="matrix(0.985031,0,0,-0.985031,18.99428,45.495616)"/>
<path style="fill-rule:nonzero;fill:rgb(0%,0%,0%);fill-opacity:1;stroke-width:0.3985;stroke-linecap:butt;stroke-linejoin:miter;stroke:rgb(0%,0%,0%);stroke-opacity:1;stroke-miterlimit:10;" d="M 171.780264 28.345711 C 171.780264 29.285561 171.018866 30.046958 170.079016 30.046958 C 169.143132 30.046958 168.381734 29.285561 168.381734 28.345711 C 168.381734 27.405861 169.143132 26.644463 170.079016 26.644463 C 171.018866 26.644463 171.780264 27.405861 171.780264 28.345711 Z M 171.780264 28.345711 " transform="matrix(0.985031,0,0,-0.985031,18.99428,45.495616)"/>
<path style="fill:none;stroke-width:0.79701;stroke-linecap:butt;stroke-linejoin:miter;stroke:rgb(0%,0%,0%);stroke-opacity:1;stroke-miterlimit:10;" d="M 1.699124 0.848156 L 54.992985 27.49707 M 58.391515 27.49707 L 111.689343 0.848156 M 115.087872 0.848156 L 168.381734 27.49707 " transform="matrix(0.985031,0,0,-0.985031,18.99428,45.495616)"/>
</g>
</svg>
